<svg xmlns="http://www.w3.org/2000/svg" viewBox="0 0 24 24" fill="#FFFFFF"><path d="M11.66 12.87c-.52 2.37-2.6 3.16-4.59 2.15-1.12-.57-1.74-1.63-1.66-2.91.09-1.37.95-2.22 2.3-2.58 1.4-.38 3.15-.31 3.95 1.34zm2.14 7.27c2.14-.95 3.32-2.79 3.13-5.2-.18-2.23-1.57-3.79-3.72-4.22-3.08-.61-6.17-1.1-9.33-.21.84 2.89 2.3 4.88 5.28 5.75 1.58.46 3.13.31 4.64-.12zM18.8 8.16C19 6.8 19.8 6.09 21.03 6c1.15-.09 1.95.49 2.27 1.63.3 1.05-.12 1.97-1.15 2.51-1.35.71-2.95.12-3.35-1.98zM6.6 6.13c1.07-.15 1.93.38 2.36 1.45.47 1.17.06 2.22-1.01 2.91-1.32.85-2.92.36-3.41-1.04-.49-1.4.67-2.92 2.06-3.32zM15.42 16.35c-.32-1.55.08-2.79 1.45-3.46 1.37-.67 2.76.03 3.31 1.65.51 1.51-.12 2.82-1.65 3.4-1.43.54-2.73-.1-3.11-1.59z"/></svg>
